Recoil (2011) 1080p MKV x264 AC3+DTS Eng NL Subs
.
[IMG]http://img109.imageshack.us/img109/1531/81165.jpg[/IMG]
.
Canada
Actie
93 minuten

geregisseerd door Terry Miles
met Danny Trejo, Serinda Swan en Steve Austin

Ryan Varrett (Steve Austin) is een voormalige politieagent wiens leven wordt verscheurd nadat zijn familie in koelen bloede wordt vermoord. Hierna besluit hij om van het vinden van de daders zijn levenswerk te maken, waarbij hij zijn eigen manier van rechtvaardigheid hanteert. Ondertussen wil een koelbloedige moordenaar (Danny Trejo) wraak nemen op Ryan omwille van de moord op zijn broer.

Vanaf 27 juni te koop op DVD en Blu-Ray
. 
http://www.moviemeter.nl/film/81165
.
PLOT
.
A cop turns vigilante after his family is murdered, exacting vengeance on the killers - and then on all criminals who have slipped through the system. 
. 
http://www.imdb.com/title/tt1839591/
.
INFO
.
NL Veratling QoQ-TEAM
.
Format                           : Matroska
Format version                   : Version 2
File size                        : 9.13 GiB
Duration                         : 1h 33mn
Overall bit rate                 : 13.9 Mbps
Encoded date                     : UTC 2012-02-26 01:12:29
Writing application              : mkvmerge v3.3.0 ('Language') built on Mar 24 2010 14:59:24
Writing library                  : libebml v0.8.0 + libmatroska v0.9.0

Video
ID                               : 1
Format                           : AVC
Format/Info                      : Advanced Video Codec
Format profile                   : High@L4.1
Format settings, CABAC           : Yes
Format settings, ReFrames        : 4 frames
Codec ID                         : V_MPEG4/ISO/AVC
Duration                         : 1h 33mn
Bit rate                         : 11.8 Mbps
Width                            : 1 920 pixels
Height                           : 1 080 pixels
Display aspect ratio             : 16:9
Frame rate                       : 23.976 fps
Color space                      : YUV
Chroma subsampling               : 4:2:0
Bit depth                        : 8 bits
Scan type                        : Progressive
Bits/(Pixel*Frame)               : 0.237
Stream size                      : 7.54 GiB (83%)
Title                            : Recoil.2011.BluRay.1080p.DTS.x264-CHD
Writing library                  : x264 core 120 r2146 bcd41db
Encoding settings                : cabac=1 / ref=4 / deblock=1:-3:-3 / analyse=0x3:0x113 / me=umh / subme=10 / psy=1 / psy_rd=1.05:0.10 / mixed_ref=1 / me_range=48 / chroma_me=1 / trellis=2 / 8x8dct=1 / cqm=1 / deadzone=21,11 / fast_pskip=0 / chroma_qp_offset=-2 / threads=12 / sliced_threads=0 / nr=0 / decimate=1 / interlaced=0 / bluray_compat=0 / constrained_intra=0 / bframes=6 / b_pyramid=2 / b_adapt=2 / b_bias=0 / direct=3 / weightb=1 / open_gop=0 / weightp=2 / keyint=250 / keyint_min=23 / scenecut=40 / intra_refresh=0 / rc_lookahead=60 / rc=2pass / mbtree=1 / bitrate=11780 / ratetol=2.0 / qcomp=0.70 / qpmin=3 / qpmax=69 / qpstep=4 / cplxblur=20.0 / qblur=0.5 / vbv_maxrate=40000 / vbv_bufsize=30000 / nal_hrd=none / ip_ratio=1.40 / aq=2:1.00
Language                         : English
Default                          : Yes
Forced                           : No

Audio #1
ID                               : 2
Format                           : DTS
Format/Info                      : Digital Theater Systems
Codec ID                         : A_DTS
Duration                         : 1h 33mn
Bit rate mode                    : Constant
Bit rate                         : 1 510 Kbps
Channel(s)                       : 6 channels
Channel positions                : Front: L C R, Side: L R, LFE
Sampling rate                    : 48.0 KHz
Bit depth                        : 24 bits
Compression mode                 : Lossy
Stream size                      : 1 013 MiB (11%)
Title                            : Engels DTS
Language                         : English
Default                          : No
Forced                           : No

Audio #2
ID                               : 3
Format                           : AC-3
Format/Info                      : Audio Coding 3
Mode extension                   : CM (complete main)
Codec ID                         : A_AC3
Duration                         : 1h 33mn
Bit rate mode                    : Constant
Bit rate                         : 640 Kbps
Channel(s)                       : 6 channels
Channel positions                : Front: L C R, Side: L R, LFE
Sampling rate                    : 48.0 KHz
Bit depth                        : 16 bits
Compression mode                 : Lossy
Stream size                      : 430 MiB (5%)
Title                            : Engels DD5.1
Language                         : English
Default                          : Yes
Forced                           : No

Text #1
ID                               : 4
Format                           : UTF-8
Codec ID                         : S_TEXT/UTF8
Codec ID/Info                    : UTF-8 Plain Text
Title                            : Nederlands QoQ-Team
Language                         : Dutch
Default                          : Yes
Forced                           : Yes

Text #2
ID                               : 5
Format                           : UTF-8
Codec ID                         : S_TEXT/UTF8
Codec ID/Info                    : UTF-8 Plain Text
Title                            : Engels
Language                         : English
Default                          : No
Forced                           : No
.
Enjoy
